# Blender 3.5.0
# www.blender.org
mtllib Empty.mtl
o Table
v -0.020250 0.250000 -0.845074
v 0.020250 0.250000 -0.845074
v 0.040500 0.250000 -0.810000
v 0.020250 0.250000 -0.774926
v -0.020250 0.250000 -0.774926
v -0.040500 0.250000 -0.810000
v -0.020250 0.000000 -0.845074
v 0.020250 0.000000 -0.845074
v 0.040500 0.000000 -0.810000
v 0.020250 0.000000 -0.774926
v -0.020250 0.000000 -0.774926
v -0.040500 0.000000 -0.810000
v -0.721730 0.000000 -0.369926
v -0.681231 0.000000 -0.369926
v -0.660981 0.000000 -0.405000
v -0.681231 0.000000 -0.440074
v -0.721730 0.000000 -0.440074
v -0.741981 0.000000 -0.405000
v -0.721730 0.250000 -0.369926
v -0.681231 0.250000 -0.369926
v -0.660981 0.250000 -0.405000
v -0.681231 0.250000 -0.440074
v -0.721730 0.250000 -0.440074
v -0.741981 0.250000 -0.405000
v -0.721730 0.250000 0.369926
v -0.681231 0.250000 0.369926
v -0.660981 0.250000 0.405000
v -0.681231 0.250000 0.440074
v -0.721730 0.250000 0.440074
v -0.741981 0.250000 0.405000
v -0.721730 0.000000 0.369926
v -0.681231 0.000000 0.369926
v -0.660981 0.000000 0.405000
v -0.681231 0.000000 0.440074
v -0.721730 0.000000 0.440074
v -0.741981 0.000000 0.405000
v -0.020250 0.000000 0.845074
v 0.020250 0.000000 0.845074
v 0.040500 0.000000 0.810000
v 0.020250 0.000000 0.774926
v -0.020250 0.000000 0.774926
v -0.040500 0.000000 0.810000
v -0.020250 0.250000 0.845074
v 0.020250 0.250000 0.845074
v 0.040500 0.250000 0.810000
v 0.020250 0.250000 0.774926
v -0.020250 0.250000 0.774926
v -0.040500 0.250000 0.810000
v 0.681231 0.250000 0.369926
v 0.721730 0.250000 0.369926
v 0.741981 0.250000 0.405000
v 0.721730 0.250000 0.440074
v 0.681231 0.250000 0.440074
v 0.660981 0.250000 0.405000
v 0.681231 0.000000 0.369926
v 0.721730 0.000000 0.369926
v 0.741981 0.000000 0.405000
v 0.721730 0.000000 0.440074
v 0.681231 0.000000 0.440074
v 0.660981 0.000000 0.405000
v 0.681231 0.000000 -0.369926
v 0.721730 0.000000 -0.369926
v 0.741981 0.000000 -0.405000
v 0.721730 0.000000 -0.440074
v 0.681231 0.000000 -0.440074
v 0.660981 0.000000 -0.405000
v 0.681231 0.250000 -0.369926
v 0.721730 0.250000 -0.369926
v 0.741981 0.250000 -0.405000
v 0.721730 0.250000 -0.440074
v 0.681231 0.250000 -0.440074
v 0.660981 0.250000 -0.405000
v 0.000000 0.250000 -0.900000
v -0.779423 0.250000 -0.450000
v -0.779423 0.250000 0.450000
v 0.000000 0.250000 0.900000
v 0.779423 0.250000 0.450000
v 0.779423 0.250000 -0.450000
v -0.779423 0.275000 -0.450000
v 0.000000 0.275000 -0.900000
v -0.779423 0.275000 0.450000
v 0.000000 0.275000 0.900000
v 0.779423 0.275000 0.450000
v 0.779423 0.275000 -0.450000
vn -0.8660 -0.0000 -0.5000
vn -0.0000 -0.0000 -1.0000
vn 0.8660 -0.0000 -0.5000
vn 0.8660 -0.0000 0.5000
vn -0.0000 -0.0000 1.0000
vn -0.8660 -0.0000 0.5000
vn -0.0000 -1.0000 -0.0000
vn -0.0000 1.0000 -0.0000
vn -1.0000 -0.0000 -0.0000
vn 1.0000 -0.0000 -0.0000
vn -0.5000 -0.0000 0.8660
vn -0.5000 -0.0000 -0.8660
vn 0.5000 -0.0000 -0.8660
vn 0.5000 -0.0000 0.8660
vt 0.000000 1.000000
vt 0.000000 0.000000
vt 0.000000 0.166667
vt 0.000000 0.333333
vt 0.000000 0.500000
vt 0.000000 0.666667
vt 0.000000 0.833333
vt 1.000000 1.000000
vt 1.000000 0.000000
vt 1.000000 0.166667
vt 1.000000 0.333333
vt 1.000000 0.500000
vt 1.000000 0.666667
vt 1.000000 0.833333
vt 0.000000 1.000000
vt 0.000000 0.000000
vt 0.000000 0.166667
vt 0.000000 0.333333
vt 0.000000 0.500000
vt 0.000000 0.666667
vt 0.000000 0.833333
vt 1.000000 1.000000
vt 1.000000 0.000000
vt 1.000000 0.166667
vt 1.000000 0.333333
vt 1.000000 0.500000
vt 1.000000 0.666667
vt 1.000000 0.833333
vt 0.000000 1.000000
vt 0.000000 0.000000
vt 0.000000 0.166667
vt 0.000000 0.333333
vt 0.000000 0.500000
vt 0.000000 0.666667
vt 0.000000 0.833333
vt 1.000000 1.000000
vt 1.000000 0.000000
vt 1.000000 0.166667
vt 1.000000 0.333333
vt 1.000000 0.500000
vt 1.000000 0.666667
vt 1.000000 0.833333
vt 0.000000 1.000000
vt 0.000000 0.000000
vt 0.000000 0.166667
vt 0.000000 0.333333
vt 0.000000 0.500000
vt 0.000000 0.666667
vt 0.000000 0.833333
vt 1.000000 1.000000
vt 1.000000 0.000000
vt 1.000000 0.166667
vt 1.000000 0.333333
vt 1.000000 0.500000
vt 1.000000 0.666667
vt 1.000000 0.833333
vt 0.000000 1.000000
vt 0.000000 0.000000
vt 0.000000 0.166667
vt 0.000000 0.333333
vt 0.000000 0.500000
vt 0.000000 0.666667
vt 0.000000 0.833333
vt 1.000000 1.000000
vt 1.000000 0.000000
vt 1.000000 0.166667
vt 1.000000 0.333333
vt 1.000000 0.500000
vt 1.000000 0.666667
vt 1.000000 0.833333
vt 0.000000 1.000000
vt 0.000000 0.000000
vt 0.000000 0.166667
vt 0.000000 0.333333
vt 0.000000 0.500000
vt 0.000000 0.666667
vt 0.000000 0.833333
vt 1.000000 1.000000
vt 1.000000 0.000000
vt 1.000000 0.166667
vt 1.000000 0.333333
vt 1.000000 0.500000
vt 1.000000 0.666667
vt 1.000000 0.833333
vt 0.000000 0.000000
vt 0.000000 0.000000
vt 0.000000 0.000000
vt 0.000000 0.000000
vt 0.000000 0.000000
vt 0.000000 0.000000
vt 0.000000 0.000000
vt 0.000000 0.000000
vt 0.000000 0.000000
vt 0.000000 0.000000
vt 0.000000 0.000000
vt 0.000000 0.000000
s 0
usemtl Legs
f 7/8/1 6/7/1 1/1/1
f 8/10/2 1/2/2 2/3/2
f 9/11/3 2/3/3 3/4/3
f 10/12/4 3/4/4 4/5/4
f 11/13/5 4/5/5 5/6/5
f 12/14/6 5/6/6 6/7/6
f 19/22/6 18/21/6 13/15/6
f 20/24/5 13/16/5 14/17/5
f 21/25/4 14/17/4 15/18/4
f 22/26/3 15/18/3 16/19/3
f 23/27/2 16/19/2 17/20/2
f 24/28/1 17/20/1 18/21/1
f 31/36/1 30/35/1 25/29/1
f 32/38/2 25/30/2 26/31/2
f 33/39/3 26/31/3 27/32/3
f 34/40/4 27/32/4 28/33/4
f 35/41/5 28/33/5 29/34/5
f 36/42/6 29/34/6 30/35/6
f 43/50/6 42/49/6 37/43/6
f 44/52/5 37/44/5 38/45/5
f 45/53/4 38/45/4 39/46/4
f 46/54/3 39/46/3 40/47/3
f 47/55/2 40/47/2 41/48/2
f 48/56/1 41/48/1 42/49/1
f 55/64/1 54/63/1 49/57/1
f 56/66/2 49/58/2 50/59/2
f 57/67/3 50/59/3 51/60/3
f 58/68/4 51/60/4 52/61/4
f 59/69/5 52/61/5 53/62/5
f 60/70/6 53/62/6 54/63/6
f 67/78/6 66/77/6 61/71/6
f 68/80/5 61/72/5 62/73/5
f 69/81/4 62/73/4 63/74/4
f 70/82/3 63/74/3 64/75/3
f 71/83/2 64/75/2 65/76/2
f 72/84/1 65/76/1 66/77/1
f 7/8/1 12/14/1 6/7/1
f 8/10/2 7/9/2 1/2/2
f 9/11/3 8/10/3 2/3/3
f 10/12/4 9/11/4 3/4/4
f 11/13/5 10/12/5 4/5/5
f 12/14/6 11/13/6 5/6/6
f 19/22/6 24/28/6 18/21/6
f 20/24/5 19/23/5 13/16/5
f 21/25/4 20/24/4 14/17/4
f 22/26/3 21/25/3 15/18/3
f 23/27/2 22/26/2 16/19/2
f 24/28/1 23/27/1 17/20/1
f 31/36/1 36/42/1 30/35/1
f 32/38/2 31/37/2 25/30/2
f 33/39/3 32/38/3 26/31/3
f 34/40/4 33/39/4 27/32/4
f 35/41/5 34/40/5 28/33/5
f 36/42/6 35/41/6 29/34/6
f 43/50/6 48/56/6 42/49/6
f 44/52/5 43/51/5 37/44/5
f 45/53/4 44/52/4 38/45/4
f 46/54/3 45/53/3 39/46/3
f 47/55/2 46/54/2 40/47/2
f 48/56/1 47/55/1 41/48/1
f 55/64/1 60/70/1 54/63/1
f 56/66/2 55/65/2 49/58/2
f 57/67/3 56/66/3 50/59/3
f 58/68/4 57/67/4 51/60/4
f 59/69/5 58/68/5 52/61/5
f 60/70/6 59/69/6 53/62/6
f 67/78/6 72/84/6 66/77/6
f 68/80/5 67/79/5 61/72/5
f 69/81/4 68/80/4 62/73/4
f 70/82/3 69/81/3 63/74/3
f 71/83/2 70/82/2 64/75/2
f 72/84/1 71/83/1 65/76/1
usemtl Wood
f 75/87/7 73/85/7 77/89/7
f 73/85/7 75/87/7 74/86/7
f 75/87/7 77/89/7 76/88/7
f 77/89/7 73/85/7 78/90/7
f 81/93/8 83/95/8 80/92/8
f 80/92/8 79/91/8 81/93/8
f 81/93/8 82/94/8 83/95/8
f 83/95/8 84/96/8 80/92/8
f 75/87/9 79/91/9 74/86/9
f 78/90/10 83/95/10 77/89/10
f 76/88/11 81/93/11 75/87/11
f 74/86/12 80/92/12 73/85/12
f 73/85/13 84/96/13 78/90/13
f 77/89/14 82/94/14 76/88/14
f 75/87/9 81/93/9 79/91/9
f 78/90/10 84/96/10 83/95/10
f 76/88/11 82/94/11 81/93/11
f 74/86/12 79/91/12 80/92/12
f 73/85/13 80/92/13 84/96/13
f 77/89/14 83/95/14 82/94/14
o Pot
v 0.000000 0.000000 -0.250000
v -0.216506 0.000000 -0.125000
v -0.216506 0.000000 0.125000
v 0.000000 0.000000 0.250000
v 0.216506 0.000000 0.125000
v 0.216506 0.000000 -0.125000
v -0.324760 0.500000 -0.187500
v 0.000000 0.500000 -0.375000
v -0.324760 0.500000 0.187500
v 0.000000 0.500000 0.375000
v 0.324760 0.500000 0.187500
v 0.324760 0.500000 -0.187500
v -0.357235 0.500000 -0.206250
v 0.000000 0.500000 -0.412500
v -0.357235 0.500000 0.206250
v 0.000000 0.500000 0.412500
v 0.357235 0.500000 0.206250
v 0.357235 0.500000 -0.206250
v -0.357235 0.550000 -0.206250
v 0.000000 0.550000 -0.412500
v -0.357235 0.550000 0.206250
v 0.000000 0.550000 0.412500
v 0.357235 0.550000 0.206250
v 0.357235 0.550000 -0.206250
vn -0.0000 -1.0000 -0.0000
vn 0.9774 -0.2116 -0.0000
vn -0.4887 -0.2116 0.8464
vn -0.4887 -0.2116 -0.8464
vn 0.4887 -0.2116 -0.8464
vn 0.4887 -0.2116 0.8464
vn -0.9774 -0.2116 -0.0000
vn 1.0000 -0.0000 -0.0000
vn -0.0000 1.0000 -0.0000
vn -0.5000 -0.0000 0.8660
vn -0.5000 -0.0000 -0.8660
vn 0.5000 -0.0000 -0.8660
vn 0.5000 -0.0000 0.8660
vn -1.0000 -0.0000 -0.0000
vt 0.000000 0.000000
vt 0.000000 0.000000
vt 0.000000 0.000000
vt 0.000000 0.000000
vt 0.000000 0.000000
vt 0.000000 0.000000
vt 0.000000 0.000000
vt 0.000000 0.000000
vt 0.000000 0.000000
vt 0.000000 0.000000
vt 0.000000 0.000000
vt 0.000000 0.000000
vt 0.000000 0.000000
vt 0.000000 0.000000
vt 0.000000 0.000000
vt 0.000000 0.000000
vt 0.000000 0.000000
vt 0.000000 0.000000
vt 0.000000 0.000000
vt 0.000000 0.000000
vt 0.000000 0.000000
vt 0.000000 0.000000
vt 0.000000 0.000000
vt 0.000000 0.000000
s 0
usemtl Pot
f 85/97/15 89/101/15 87/99/15
f 92/104/15 102/114/15 96/108/15
f 90/102/16 95/107/16 89/101/16
f 88/100/17 93/105/17 87/99/17
f 86/98/18 92/104/18 85/97/18
f 85/97/19 96/108/19 90/102/19
f 89/101/20 94/106/20 88/100/20
f 87/99/21 91/103/21 86/98/21
f 102/114/22 107/119/22 101/113/22
f 94/106/15 101/113/15 100/112/15
f 93/105/15 97/109/15 91/103/15
f 96/108/15 101/113/15 95/107/15
f 94/106/15 99/111/15 93/105/15
f 92/104/15 97/109/15 98/110/15
f 107/119/23 108/120/23 104/116/23
f 100/112/24 105/117/24 99/111/24
f 97/109/25 104/116/25 98/110/25
f 98/110/26 108/120/26 102/114/26
f 101/113/27 106/118/27 100/112/27
f 99/111/28 103/115/28 97/109/28
f 87/99/15 86/98/15 85/97/15
f 85/97/15 90/102/15 89/101/15
f 89/101/15 88/100/15 87/99/15
f 92/104/15 98/110/15 102/114/15
f 90/102/16 96/108/16 95/107/16
f 88/100/17 94/106/17 93/105/17
f 86/98/18 91/103/18 92/104/18
f 85/97/19 92/104/19 96/108/19
f 89/101/20 95/107/20 94/106/20
f 87/99/21 93/105/21 91/103/21
f 102/114/22 108/120/22 107/119/22
f 94/106/15 95/107/15 101/113/15
f 93/105/15 99/111/15 97/109/15
f 96/108/15 102/114/15 101/113/15
f 94/106/15 100/112/15 99/111/15
f 92/104/15 91/103/15 97/109/15
f 104/116/23 103/115/23 107/119/23
f 103/115/23 105/117/23 107/119/23
f 105/117/23 106/118/23 107/119/23
f 100/112/24 106/118/24 105/117/24
f 97/109/25 103/115/25 104/116/25
f 98/110/26 104/116/26 108/120/26
f 101/113/27 107/119/27 106/118/27
f 99/111/28 105/117/28 103/115/28
o Island
v 0.000000 0.000000 -1.000000
v -0.866025 0.000000 -0.500000
v -0.866025 0.000000 0.500000
v 0.000000 0.000000 1.000000
v 0.866025 0.000000 0.500000
v 0.866025 0.000000 -0.500000
v -0.866025 0.100000 -0.500000
v 0.000000 0.100000 -1.000000
v -0.866025 0.100000 0.500000
v 0.000000 0.100000 1.000000
v 0.866025 0.100000 0.500000
v 0.866025 0.100000 -0.500000
v -0.649519 0.100000 -0.375000
v 0.000000 0.100000 -0.750000
v -0.649519 0.100000 0.375000
v 0.000000 0.100000 0.750000
v 0.649519 0.100000 0.375000
v 0.649519 0.100000 -0.375000
v -0.454663 0.200000 -0.262500
v 0.000000 0.200000 -0.525000
v -0.454663 0.200000 0.262500
v 0.000000 0.200000 0.525000
v 0.454663 0.200000 0.262500
v 0.454663 0.200000 -0.262500
vn -0.0000 -1.0000 -0.0000
vn -0.0000 1.0000 -0.0000
vn 0.5000 -0.0000 -0.8660
vn 0.5000 -0.0000 0.8660
vn -1.0000 -0.0000 -0.0000
vn 1.0000 -0.0000 -0.0000
vn -0.5000 -0.0000 0.8660
vn -0.5000 -0.0000 -0.8660
vn -0.2283 0.8897 0.3954
vn -0.2283 0.8897 -0.3954
vn 0.2283 0.8897 -0.3954
vn 0.2283 0.8897 0.3954
vn -0.4566 0.8897 -0.0000
vn 0.4566 0.8897 -0.0000
vt 0.000000 0.000000
vt 0.000000 0.000000
vt 0.000000 0.000000
vt 0.000000 0.000000
vt 0.000000 0.000000
vt 0.000000 0.000000
vt 0.000000 0.000000
vt 0.000000 0.000000
vt 0.000000 0.000000
vt 0.000000 0.000000
vt 0.000000 0.000000
vt 0.000000 0.000000
vt 0.000000 0.000000
vt 0.000000 0.000000
vt 0.000000 0.000000
vt 0.000000 0.000000
vt 0.000000 0.000000
vt 0.000000 0.000000
vt 0.000000 0.000000
vt 0.000000 0.000000
vt 0.000000 0.000000
vt 0.000000 0.000000
vt 0.000000 0.000000
vt 0.000000 0.000000
s 0
usemtl Water
f 109/121/29 113/125/29 111/123/29
f 119/131/30 124/136/30 118/130/30
f 109/121/31 120/132/31 114/126/31
f 113/125/32 118/130/32 112/124/32
f 111/123/33 115/127/33 110/122/33
f 114/126/34 119/131/34 113/125/34
f 112/124/35 117/129/35 111/123/35
f 110/122/36 116/128/36 109/121/36
f 117/129/30 121/133/30 115/127/30
f 120/132/30 125/137/30 119/131/30
f 118/130/30 123/135/30 117/129/30
f 115/127/30 122/134/30 116/128/30
f 116/128/30 126/138/30 120/132/30
f 111/123/29 110/122/29 109/121/29
f 109/121/29 114/126/29 113/125/29
f 113/125/29 112/124/29 111/123/29
f 119/131/30 125/137/30 124/136/30
f 109/121/31 116/128/31 120/132/31
f 113/125/32 119/131/32 118/130/32
f 111/123/33 117/129/33 115/127/33
f 114/126/34 120/132/34 119/131/34
f 112/124/35 118/130/35 117/129/35
f 110/122/36 115/127/36 116/128/36
f 117/129/30 123/135/30 121/133/30
f 120/132/30 126/138/30 125/137/30
f 118/130/30 124/136/30 123/135/30
f 115/127/30 121/133/30 122/134/30
f 116/128/30 122/134/30 126/138/30
usemtl Sand
f 123/135/37 130/142/37 129/141/37
f 129/141/30 131/143/30 128/140/30
f 121/133/38 128/140/38 122/134/38
f 126/138/39 128/140/39 132/144/39
f 125/137/40 130/142/40 124/136/40
f 123/135/41 127/139/41 121/133/41
f 126/138/42 131/143/42 125/137/42
f 123/135/37 124/136/37 130/142/37
f 128/140/30 127/139/30 129/141/30
f 129/141/30 130/142/30 131/143/30
f 131/143/30 132/144/30 128/140/30
f 121/133/38 127/139/38 128/140/38
f 126/138/39 122/134/39 128/140/39
f 125/137/40 131/143/40 130/142/40
f 123/135/41 129/141/41 127/139/41
f 126/138/42 132/144/42 131/143/42
